<svg width="643" height="410" xmlns="http://www.w3.org/2000/svg" xmlns:xlink="http://www.w3.org/1999/xlink" xml:space="preserve" overflow="hidden"><defs><clipPath id="clip0"><rect x="265" y="144" width="643" height="410"/></clipPath><clipPath id="clip1"><rect x="265" y="144" width="643" height="410"/></clipPath><clipPath id="clip2"><rect x="266" y="145" width="641" height="409"/></clipPath><clipPath id="clip3"><rect x="266" y="145" width="641" height="409"/></clipPath></defs><g clip-path="url(#clip0)" transform="translate(-265 -144)"><g clip-path="url(#clip1)"><g clip-path="url(#clip2)"><g clip-path="url(#clip3)"><path d="M0 0 719.602 0 719.602 719.602 0 719.602 0 0Z" fill="#CC2229" fill-rule="evenodd" fill-opacity="1" transform="matrix(1 0 0 1.00113 198.796 -13.0802)"/><path d="M561.078 294.906C561.078 291.722 563.479 289.321 566.555 289.321 569.594 289.321 572.001 291.726 572.001 294.906 572.001 298.139 569.594 300.517 566.555 300.517 563.479 300.517 561.078 298.139 561.078 294.906ZM566.555 301.641C570.228 301.641 573.357 298.796 573.357 294.906 573.357 291.054 570.228 288.209 566.555 288.209 562.859 288.209 559.723 291.054 559.723 294.906 559.723 298.796 562.859 301.641 566.555 301.641ZM565.132 295.436 566.48 295.436 568.53 298.793 569.851 298.793 567.641 295.38C568.787 295.239 569.653 294.634 569.653 293.249 569.653 291.722 568.75 291.05 566.921 291.05L563.96 291.05 563.96 298.793 565.132 298.793 565.132 295.436ZM565.132 294.44 565.132 292.043 566.738 292.043C567.555 292.043 568.429 292.222 568.429 293.182 568.429 294.372 567.54 294.44 566.54 294.44L565.132 294.44ZM175.324 429.06 181.084 429.06 178.336 441.301 178.422 441.301C180.009 439.841 182.208 438.632 184.701 438.632 189.047 438.632 191.929 441.339 191.929 445.725 191.929 447.394 191.496 449.16 191.197 450.537L188.875 461.27 183.111 461.27 185.258 450.836C185.56 449.328 185.904 447.823 185.904 446.192 185.904 444.348 184.612 443.108 182.771 443.108 178.769 443.108 177.302 446.841 176.574 450.145L174.204 461.27 168.443 461.27 175.324 429.06ZM205.69 457.328C202.378 457.328 201.176 455.039 201.176 452.12 201.176 448.126 203.453 443.108 208.012 443.108 211.413 443.108 212.398 445.516 212.398 448.387 212.398 452.165 210.158 457.328 205.69 457.328ZM208.273 438.632C200.833 438.632 195.151 444.31 195.151 451.691 195.151 457.925 198.94 461.789 205.216 461.789 213.04 461.789 218.42 456.115 218.42 448.335 218.416 442.249 214.25 438.632 208.273 438.632ZM222.075 439.151 227.843 439.151 229.429 455.767 229.515 455.767 237.646 439.151 244.056 439.151 245.258 455.767 245.34 455.767 253.86 439.151 259.747 439.151 247.453 461.274 240.954 461.274 239.707 444.348 239.621 444.348 231.535 461.274 225.002 461.274 222.075 439.151ZM281.172 457.328C278.372 457.328 277.383 454.957 277.383 452.12 277.383 448.256 279.578 443.108 283.494 443.108 286.159 443.108 287.533 445.12 287.533 447.827 287.533 451.306 285.988 457.328 281.172 457.328ZM269.472 461.274 274.893 461.274 275.579 458.138 275.669 458.138C277.472 461.229 278.887 461.793 282.034 461.793 289.732 461.793 293.555 454.532 293.555 447.618 293.555 442.376 290.938 438.636 285.431 438.636 282.897 438.636 280.914 439.845 279.496 441.428L279.41 441.342 279.455 441.342 279.369 441.428 279.369 441.342 282.202 429.064 276.311 429.064 269.472 461.274ZM300.051 439.151 305.811 439.151 301.085 461.274 295.321 461.274 300.051 439.151ZM302.16 429.612 307.92 429.612 306.718 435.111 300.958 435.111 302.16 429.612ZM323.925 447.741C323.925 451.956 322.032 456.813 317.429 456.813 314.846 456.813 313.774 454.532 313.774 451.87 313.774 448.566 315.577 443.112 319.751 443.112 322.417 443.108 323.925 445.165 323.925 447.741ZM306.155 469.308C308.992 470.379 312.005 470.809 315.014 470.809 323.1 470.809 326.243 466.082 327.662 458.866L331.186 442.249C331.488 440.827 331.742 439.756 331.918 439.151L326.366 439.151 325.72 442.373C324.35 440.054 321.898 438.632 318.971 438.632 311.792 438.632 307.741 445.296 307.741 451.911 307.741 456.768 310.063 461.274 315.439 461.274 318.627 461.274 321.42 459.728 322.883 457.067L322.969 457.067C321.591 462.092 320.684 466.34 314.58 466.34 312.083 466.34 309.892 465.567 307.611 464.626L306.155 469.308ZM362.496 444.217C361.384 443.489 359.876 443.108 358.289 443.108 353.679 443.108 351.103 447.394 351.103 451.568 351.103 454.442 352.051 457.328 356.004 457.328 357.423 457.328 359.193 456.928 360.693 456.204L360.047 460.762C358.289 461.617 356.393 461.789 354.5 461.789 348.781 461.789 345.085 457.963 345.085 452.251 345.085 444.515 350.203 438.632 358.155 438.632 360.313 438.632 362.373 439.02 363.911 439.491L362.496 444.217ZM370.116 455.256C370.116 451.523 374.753 451.049 377.553 451.049L379.572 451.049C378.669 454.614 377.34 457.574 373.032 457.574 371.564 457.574 370.116 456.809 370.116 455.256ZM378.064 461.274 382.928 461.274C383.447 457.111 385.635 448.435 385.635 445.46 385.635 440.275 381.472 438.636 377.045 438.636 374.458 438.636 371.964 439.11 369.511 439.968L368.694 444.568C370.956 443.461 373.436 442.873 375.955 442.847 377.974 442.847 380.39 443.489 380.39 445.725 380.39 446.36 380.39 447.009 380.214 447.614L378.202 447.614C372.778 447.614 364.609 448.167 364.609 455.473 364.609 459.549 367.447 461.785 371.449 461.785 374.629 461.785 376.604 460.363 378.579 457.877L378.665 457.877 378.064 461.274ZM391.31 442.328C391.571 440.995 391.784 439.841 391.87 439.147L397.507 439.147 397.118 441.297 397.197 441.297C398.795 439.838 400.99 438.628 403.476 438.628 407.822 438.628 410.704 441.335 410.704 445.721 410.704 447.39 410.282 449.156 409.983 450.533L407.657 461.266 401.897 461.266 404.047 450.832C404.338 449.324 404.689 447.819 404.689 446.188 404.689 444.344 403.398 443.104 401.546 443.104 397.551 443.104 396.084 446.838 395.356 450.141L392.993 461.266 387.225 461.266 391.31 442.328ZM432.427 439.151 434.492 455.599 434.578 455.599 443.399 439.151 449.712 439.151 434.705 464.626C432.939 467.632 430.751 470.809 425.89 470.809 424.436 470.803 422.989 470.6 421.59 470.204L422.881 465.828C423.568 466.082 424.259 466.34 425.42 466.34 427.134 466.34 428.433 465.485 430.452 462.353L426.536 439.151 432.427 439.151ZM459.486 457.328C456.167 457.328 454.965 455.039 454.965 452.12 454.965 448.126 457.246 443.108 461.804 443.108 465.201 443.108 466.187 445.516 466.187 448.387 466.187 452.165 463.954 457.328 459.486 457.328ZM462.065 438.632C454.621 438.632 448.939 444.31 448.939 451.691 448.939 457.925 452.725 461.789 459 461.789 466.833 461.789 472.205 456.115 472.205 448.335 472.209 442.249 468.039 438.632 462.065 438.632ZM494.746 458.093C494.492 459.426 494.272 460.587 494.194 461.274L488.556 461.274 488.945 459.124 488.859 459.124C487.268 460.591 485.073 461.793 482.579 461.793 478.234 461.793 475.352 459.086 475.352 454.707 475.352 453.031 475.789 451.265 476.087 449.895L478.398 439.155 484.174 439.155 482.023 449.596C481.71 451.097 481.374 452.602 481.374 454.233 481.374 456.077 482.665 457.332 484.51 457.332 488.512 457.332 489.971 453.583 490.707 450.28L493.077 439.155 498.838 439.155 494.746 458.093ZM524.25 443.108C527.18 443.108 528.427 445.77 528.427 448.335 528.427 452.426 525.926 457.324 521.719 457.324 518.874 457.324 518.183 454.311 518.183 452.075 518.183 448.775 520.128 443.108 524.25 443.108ZM532.941 429.06 530.148 441.768C528.349 439.703 526.146 438.632 523.302 438.632 515.783 438.632 512.169 445.983 512.169 452.594 512.169 457.406 514.532 461.789 519.781 461.789 523.134 461.789 525.288 460.412 527.009 458.011L527.094 458.011 526.534 461.27 531.907 461.27C532.045 460.154 532.388 458.265 532.724 456.372L538.705 429.06 532.941 429.06ZM541.113 442.119C541.281 441.171 541.456 440.185 541.624 439.151L547.131 439.151 546.358 443.321 546.444 443.321C547.478 440.909 550.308 438.632 552.984 438.632 553.712 438.632 554.493 438.677 555.172 438.852L553.977 444.474C553.267 444.253 552.527 444.14 551.782 444.138 547.698 444.138 545.716 447.786 544.98 451.358L542.916 461.274 537.156 461.274 541.113 442.119ZM561.071 448.04C562.187 444.993 563.732 442.847 567.305 442.847 569.717 442.847 570.96 444.172 570.96 446.543 570.96 447.054 570.915 447.528 570.837 448.036L561.071 448.036 561.071 448.04ZM575.91 451.997C576.246 450.362 576.47 448.73 576.47 447.054 576.47 441.424 572.853 438.632 567.391 438.632 560.115 438.632 554.784 445.243 554.784 452.12 554.784 458.691 559.085 461.789 565.45 461.789 567.82 461.789 570.269 461.229 572.509 460.542L573.237 455.991C571.087 456.977 568.802 457.574 566.443 457.574 562.489 457.574 560.29 456.074 560.29 451.997L575.91 451.997ZM583.302 455.256C583.302 451.523 587.946 451.049 590.739 451.049L592.766 451.049C591.862 454.614 590.526 457.574 586.233 457.574 584.769 457.574 583.302 456.809 583.302 455.256ZM591.258 461.274 596.122 461.274C596.641 457.111 598.836 448.435 598.836 445.46 598.836 440.275 594.658 438.636 590.223 438.636 587.651 438.636 585.157 439.11 582.705 439.968L581.88 444.568C584.145 443.463 586.628 442.875 589.148 442.847 591.175 442.847 593.583 443.489 593.583 445.725 593.583 446.36 593.583 447.009 593.408 447.614L591.388 447.614C585.964 447.614 577.795 448.167 577.795 455.473 577.795 459.549 580.633 461.785 584.635 461.785 587.823 461.785 589.79 460.363 591.773 457.877L591.859 457.877 591.258 461.274ZM604.462 441.592C604.63 440.737 604.813 439.841 604.943 439.151L610.312 439.151 609.793 442.119 609.879 442.119C611.432 439.845 613.97 438.632 616.673 438.632 619.305 438.632 622.012 440.185 622.31 442.847L622.396 442.847C623.863 439.968 627.085 438.632 630.176 438.632 633.495 438.632 636.329 441.339 636.329 444.691 636.329 446.666 635.81 448.906 635.343 450.698L633.017 461.27 627.25 461.27 629.568 450.485C629.867 449.16 630.303 447.095 630.303 445.766 630.303 444.131 629.056 443.104 627.597 443.104 623.595 443.104 622.602 447.734 621.874 450.746L619.593 461.266 613.832 461.266 616.151 450.481C616.457 449.156 616.886 447.091 616.886 445.762 616.886 444.127 615.639 443.101 614.165 443.101 610.263 443.101 609.192 447.775 608.456 450.742L606.175 461.263 600.415 461.263 604.462 441.592ZM643.844 452.777C644.34 448.577 646.084 446.505 649.365 443.985 650.817 442.862 652.273 441.615 652.273 439.502 652.273 437.053 649.488 436.142 647.454 436.142 645.666 436.142 643.926 436.478 642.306 437.183L642.306 432.532C644.135 432.159 646.046 431.826 648.204 431.826 652.938 431.826 658.332 433.779 658.332 439.379 658.332 443.937 654.722 445.721 651.777 448.338 650.317 449.623 649.07 450.862 648.902 452.777L643.844 452.777ZM648.992 455.469 647.79 461.274 641.977 461.274 643.172 455.469 648.992 455.469ZM669.588 429.956 669.588 431.714 667.277 431.714 667.277 440.536 665.149 440.536 665.149 431.714 662.838 431.714 662.838 429.956 669.588 429.956ZM670.413 429.956 673.586 429.956 675.095 437.43 675.124 437.43 676.655 429.956 679.813 429.956 679.813 440.536 677.85 440.536 677.85 432.091 677.827 432.091 675.946 440.536 674.284 440.536 672.395 432.091 672.369 432.091 672.369 440.536 670.413 440.536 670.413 429.956ZM247.36 287.108 247.36 292.902 221.384 292.902 221.384 287.108 139.686 287.108 139.694 388.883 557.046 388.883 557.046 287.108 247.36 287.108Z" fill="#FFFFFF" fill-rule="evenodd" fill-opacity="1" transform="matrix(1 0 0 1.00113 198.796 -13.0802)"/><path d="M219.962 302.276 248.902 302.276 248.902 294.447 219.962 294.447 219.962 302.276Z" fill="#CC2229" fill-rule="evenodd" fill-opacity="1" transform="matrix(1 0 0 1.00113 198.796 -13.0802)"/><path d="M195.838 363.056C194.296 363.859 191.533 364.662 187.849 364.662 175.988 364.662 168.107 356.049 168.107 339.929 168.107 325.243 176.38 314.207 189.618 314.207 192.56 314.207 194.471 314.909 195.841 315.637L195.841 324.167C193.913 323.474 191.884 323.104 189.835 323.074 182.704 323.074 179.031 330.689 179.031 339.713 179.031 349.747 183.152 355.855 189.835 355.855 191.858 355.855 194.24 355.467 195.838 354.687L195.838 363.056ZM248.898 352.148C248.898 355.967 249.13 360.802 249.66 364.053L228.253 364.053C221.093 364.053 215.687 358.222 215.687 349.617 215.687 337.021 226.536 331.686 237.837 331.589L237.837 330.719C237.837 325.616 235.802 322.025 230.366 322.025 226.801 322.025 222.717 323.04 220.01 324.746L220.01 317.41C222.467 315.88 226.67 313.897 232.752 313.897 245.605 313.897 248.898 322.114 248.898 332.552L248.898 352.148ZM238.117 356.057 238.131 338.757C233.864 338.817 226.144 339.974 226.144 348.519 226.144 354.048 229.149 356.049 231.553 356.049L238.117 356.057ZM307.961 352.182 307.943 299.465 297.053 299.465 297.053 319.146 296.84 319.146C295.246 315.756 292.226 313.819 288.112 313.819 280.041 313.819 272.507 322.077 272.507 339.287 272.507 354.063 277.935 364.064 287.6 364.064L308.723 364.087C308.197 360.839 307.961 355.989 307.961 352.182ZM297.049 356.03 290.673 356.034C286.085 356.034 283.427 349.225 283.427 339.433 283.427 330.659 285.409 322.924 290.945 322.924 294.167 322.924 296.418 326.415 296.892 330.353 297.049 331.343 297.049 332.44 297.049 333.377L297.049 356.03ZM342.139 342.371C342.255 353.331 347.433 356.303 353.268 356.303 356.912 356.303 360.775 355.504 363.004 354.567L363.004 362.31C359.879 363.74 355.844 364.598 351.278 364.598 338.402 364.598 331.492 355.433 331.492 340.254 331.492 324.018 339.421 314.147 350.076 314.147 360.578 314.147 365.871 323.469 365.871 336.621 365.871 339.421 365.763 340.989 365.58 342.348L342.139 342.371ZM355.728 334.714C355.81 326.848 353.186 322.174 349.299 322.174 344.551 322.174 342.408 328.968 342.184 334.714L355.728 334.714ZM400.512 323.26 400.512 364.064 389.566 364.064 389.566 328.838C389.566 323.298 389.275 318.956 389.107 314.618L410.681 314.618C419.006 314.618 423.96 320.561 423.96 331.94L423.96 364.064 413.007 364.064 413.007 332.955C413.007 328.057 411.958 323.275 407.179 323.275L400.512 323.26ZM474.923 363.056C473.385 363.859 470.629 364.662 466.937 364.662 455.073 364.662 447.192 356.049 447.192 339.929 447.192 325.243 455.469 314.207 468.711 314.207 471.649 314.207 473.56 314.909 474.923 315.637L474.923 324.167C472.997 323.474 470.97 323.104 468.923 323.074 461.793 323.074 458.123 330.689 458.123 339.713 458.123 349.747 462.237 355.855 468.931 355.855 470.95 355.855 473.329 355.467 474.923 354.687L474.923 363.056ZM528.689 336.625C528.689 323.477 523.395 314.151 512.89 314.151 502.235 314.151 494.317 324.022 494.317 340.258 494.317 355.437 501.231 364.602 514.099 364.602 518.665 364.602 522.704 363.743 525.818 362.314L525.818 354.571C523.593 355.508 519.729 356.307 516.085 356.307 510.254 356.307 505.083 353.331 504.964 342.374L528.397 342.356C528.573 340.997 528.689 339.425 528.689 336.625ZM504.997 334.714C505.218 328.968 507.361 322.174 512.113 322.174 515.992 322.174 518.624 326.848 518.545 334.714L504.997 334.714Z" fill="#000000" fill-rule="evenodd" fill-opacity="1" transform="matrix(1 0 0 1.00113 198.796 -13.0802)"/><path d="M248.902 288.75 248.902 294.436 549.587 294.436 549.587 381.555 147.153 381.555 147.153 294.436 219.932 294.436 219.932 288.75 141.366 288.75 141.366 387.237 555.37 387.237 555.37 288.75 248.902 288.75Z" fill="#000000" fill-rule="evenodd" fill-opacity="1" transform="matrix(1 0 0 1.00113 198.796 -13.0802)"/></g></g></g></g></svg>